<svg id="Layer_1" data-name="Layer 1" xmlns="http://www.w3.org/2000/svg" viewBox="0 0 625 306"><defs><style>.cls-1{fill:#f5c6bb;}.cls-2{fill:#f5f0bb;}</style></defs><path class="cls-1" d="M465,0c14.54,13.87,29.88,29.23,46,44.2,44.36,41.55,94.37,80,114,122.79V0Z"/><path class="cls-1" d="M576.38,306H625V245.54A141.74,141.74,0,0,1,576.38,306Z"/><path class="cls-1" d="M138,207c23.06-47.13,90.57-71.19,136-120.65,24-26.09,42-59.23,58.77-86.31H0V306H142.63C126.32,277.23,123,237.41,138,207Z"/><path class="cls-2" d="M511,44.2c-16.09-15-31.43-30.33-46-44.2H332.83C316.05,27.08,298,60.22,274.06,86.31c-45.45,49.46-113,73.52-136,120.65-15,30.45-11.72,70.27,4.59,99H576.38A141.74,141.74,0,0,0,625,245.54V167C605.38,124.24,555.37,85.75,511,44.2Z"/></svg>