<svg xmlns="http://www.w3.org/2000/svg" viewBox="0 0 625 305"><defs><style>.cls-1{fill:#faf0d7;}.cls-2{fill:#8cc0de;}</style></defs><g id="Layer_2" data-name="Layer 2"><g id="Layer_1-2" data-name="Layer 1"><path class="cls-1" d="M0,0V305H271.86q-8.6-63.17-38.58-115.26-31.2-54.12,23.13-82.84T359.5,64.14q48.75-14.05,96.27,10.33t88.62,75.4q41.11,51,16.12,115.48A150.81,150.81,0,0,1,538.22,305H625V0Z"/><path class="cls-2" d="M544.39,149.87q-41.1-51-88.62-75.4T359.5,64.14q-48.75,14-103.09,42.76t-23.13,82.84q30,52.08,38.58,115.26H538.22a150.81,150.81,0,0,0,22.29-39.65Q585.5,200.9,544.39,149.87Z"/></g></g></svg>