<?xml version="1.0" encoding="UTF-8"?>
<svg id="Layer_1" data-name="Layer 1" xmlns="http://www.w3.org/2000/svg" xmlns:xlink="http://www.w3.org/1999/xlink" viewBox="0 0 986 602">
  <defs>
    <style>
      .cls-1 {
        fill: url(#linear-gradient);
      }
    </style>
    <linearGradient id="linear-gradient" x1="159.4" y1="657.7" x2="741.1" y2="76" gradientUnits="userSpaceOnUse">
      <stop offset="0" stop-color="#5263ae"/>
      <stop offset=".1" stop-color="#4f6eb5"/>
      <stop offset=".5" stop-color="#498dcc"/>
      <stop offset=".8" stop-color="#46a1da"/>
      <stop offset="1" stop-color="#45a8df"/>
    </linearGradient>
  </defs>
  <path class="cls-1" d="M386.2,509.6c0,17-8.5,28.6-37.7,28.6h-107.7c-28.6,0-37.7-10.3-37.7-24.9s15.2-23.1,15.2-35.9-1.2-8.5-6.1-14.6l-19.5-28.6-15.2,5.5v57.2c0,10.3-1.2,19.5-5.5,26.8-5.5,9.1-16.4,14.6-38.3,14.6h-66.3c-21.3,0-41.4-1.8-41.4-23.7s23.1-24.3,23.1-48.7V195.2c0-28-9.7-35.3-18.9-42.6-7.9-5.5-15.2-10.3-15.2-23.1,0-24.3,80.9-45.6,117.4-45.6s44.4,15.8,44.4,34.1l.6,256.7c42-10.3,64.5-29.2,79.7-44.4,17.6-17-7.9-29.8-7.9-53.5,0-34.1,25.5-51.1,62.7-51.1s54.7,21.3,54.7,52.3-34.1,78.5-77.9,107.7l54.1,72.4c14,18.9,43.2,20.7,43.2,51.7ZM558.4,259.6c0-18.2-15.2-34.1-44.4-34.1s-117.4,21.3-117.4,45.6,7.3,17.6,15.2,23.1c9.1,7.3,18.9,14.6,18.9,42.6v129c0,24.3-23.1,25.5-23.1,48.7s20.1,23.7,41.4,23.7h91.2c21.3,0,41.4-1.8,41.4-23.7s-23.1-24.3-23.1-48.7v-206.2ZM489.7,194.6c45.6,0,74.8-26.2,74.8-65.7s-29.2-65.1-74.8-65.1-74.8,25.5-74.8,65.1,29.2,65.7,74.8,65.7ZM947.7,465.8v-111.3c0-80.3-30.4-129.6-102.8-129.6s-76,20.1-94.3,55.4h-3.7v-23.1c0-23.1-7.3-32.8-28.6-32.8-38.9,0-118,21.3-118,45.6s9.1,18.2,17.6,25.5c8.5,6.7,17,16.4,17,42v128.3c0,24.3-23.1,25.5-23.1,48.7s20.1,23.7,41.4,23.7h66.3c22.5,0,34.1-6.1,38.9-15.8,6.7-12.2,4.3-30.4,4.3-50.5v-99.1c0-30.4,6.7-52.3,28-52.3s29.2,20.1,29.2,52.3v93.1c0,24.3-23.1,25.5-23.1,48.7s20.1,23.7,41.4,23.7h91.2c21.3,0,41.4-1.8,41.4-23.7s-23.1-24.3-23.1-48.7Z"/>
</svg>